# xmcd CD database file
#
# Track frame offsets:
#	150
#	35965
#	63867
#	85177
#	111900
#	140075
#	177625
#	206970
#	230390
#	266862
#	302512
#
# Disc length: 4409 seconds
#
# Revision: 1
# Processed by: cddbd v1.5.2PL0 Copyright (c) Steve Scherf et al.
# Submitted via: CDex 1.51
#
DISCID=a811370b
DTITLE=Sandy Weltman - Harmonica Jazz
DYEAR=1900
DGENRE=Jazz
TTITLE0=There Will Never Be Another You
TTITLE1=West End Blues
TTITLE2=Slipped Disc
TTITLE3=Waltz For Elizabeth
TTITLE4=Groovin' High
TTITLE5='Round Midnight
TTITLE6=Sidewinder
TTITLE7=Dudrovnik
TTITLE8=Triste
TTITLE9=Spain
TTITLE10=Simple Waltz
EXTD=
EXTT0=
EXTT1=
EXTT2=
EXTT3=
EXTT4=
EXTT5=
EXTT6=
EXTT7=
EXTT8=
EXTT9=
EXTT10=
PLAYORDER=
